#N canvas 581 62 685 664 12;
#X msg 353 56 devicename /dev/cu.usbserial-1410;
#X obj 353 85 s comctl;
#X obj 234 136 r comctl;
#X obj 234 165 comport 1 9600;
#X msg 333 133 devices;
#X msg 242 69 close;
#X obj 234 460 osc~;
#X obj 246 542 output~;
#X obj 234 311 * 22000;
#X obj 234 340 pack 0 50;
#X obj 234 369 line~;
#X obj 234 282 / 127;
#X floatatom 234 194 5 0 0 0 - - -, f 5;
#X floatatom 234 251 5 0 0 0 - - -, f 5;
#X floatatom 394 281 5 0 0 0 - - -, f 5;
#X obj 394 252 - 128;
#X obj 234 489 *~;
#X obj 234 222 moses 128;
#X obj 384 448 osc~;
#X obj 319 334 *;
#X obj 394 338 line~;
#X obj 394 408 *~;
#X obj 394 309 pack 0 200;
#X obj 394 379 /~ 32;
#X connect 0 0 1 0;
#X connect 2 0 3 0;
#X connect 3 0 12 0;
#X connect 4 0 3 0;
#X connect 5 0 1 0;
#X connect 6 0 16 0;
#X connect 8 0 9 0;
#X connect 9 0 10 0;
#X connect 10 0 6 0;
#X connect 10 0 21 1;
#X connect 11 0 8 0;
#X connect 12 0 17 0;
#X connect 13 0 11 0;
#X connect 14 0 22 0;
#X connect 15 0 14 0;
#X connect 16 0 7 0;
#X connect 16 0 7 1;
#X connect 17 0 13 0;
#X connect 17 1 15 0;
#X connect 18 0 16 1;
#X connect 20 0 23 0;
#X connect 21 0 18 0;
#X connect 22 0 20 0;
#X connect 23 0 21 0;
