#N canvas 717 55 685 664 12;
#X obj 234 460 osc~;
#X obj 234 532 output~;
#X obj 234 311 * 22000;
#X obj 234 340 pack 0 50;
#X obj 234 369 line~;
#X obj 234 282 / 127;
#X floatatom 394 281 5 0 0 0 - - -, f 5;
#X obj 234 489 *~;
#X obj 384 448 osc~;
#X obj 394 338 line~;
#X obj 394 408 *~;
#X obj 394 309 pack 0 200;
#X obj 394 379 /~ 32;
#X obj 234 217 loadbang;
#X msg 183 228 open;
#X msg 308 230 close;
#X obj 234 253 sense2;
#X text 134 121 This patch uses the two sensor values to control the
frequency of two oscillator \, then multiplying them to do ring modulation
;
#X msg 71 307 2;
#X msg 120 306 50;
#X text 68 276 step;
#X text 119 277 gliss;
#X msg 470 272 2;
#X msg 521 271 200;
#X text 471 235 step;
#X text 518 235 gliss;
#X connect 0 0 7 0;
#X connect 2 0 3 0;
#X connect 3 0 4 0;
#X connect 4 0 0 0;
#X connect 4 0 10 1;
#X connect 5 0 2 0;
#X connect 6 0 11 0;
#X connect 7 0 1 0;
#X connect 7 0 1 1;
#X connect 8 0 7 1;
#X connect 9 0 12 0;
#X connect 10 0 8 0;
#X connect 11 0 9 0;
#X connect 12 0 10 0;
#X connect 13 0 16 0;
#X connect 14 0 16 0;
#X connect 15 0 16 1;
#X connect 16 0 5 0;
#X connect 16 1 6 0;
#X connect 18 0 3 1;
#X connect 19 0 3 1;
#X connect 22 0 11 1;
#X connect 23 0 11 1;
