#N canvas 409 23 563 673 12;
#X text 29 32 This patch receives the sensor values from two HC-SR04
sensors connected via usb port.;
#X text 27 106 Sending a bang to the left inlet will open the connection
;
#X text 22 152 Sending a bang to the right inlet will close (turn off)
the connection, f 73;
#X text 23 190 The left outlet is the sensor value of the sensor connected
to pin 13 and 12 on the arduino board \, while the right outlet is
the one connected to pin 11 and 10 on the board. Both of the values
would be ranging from 0 to 127 \, with 0 begin the closet and 127 the
furthest.;
#X obj 58 322 inlet;
#X msg 58 351 devicename /dev/cu.usbserial-1410;
#X obj 58 380 s \$0-comctl;
#X obj 328 322 inlet;
#X msg 328 351 close;
#X obj 328 380 s \$0-comctl;
#X obj 59 434 r \$0-comctl;
#X obj 59 463 comport 1 9600;
#X floatatom 59 492 5 0 0 0 - - -, f 5;
#X obj 59 520 moses 128;
#X floatatom 59 549 5 0 0 0 - - -, f 5;
#X floatatom 119 579 5 0 0 0 - - -, f 5;
#X obj 59 577 outlet;
#X obj 119 607 outlet;
#X obj 119 549 - 128;
#X connect 4 0 5 0;
#X connect 5 0 6 0;
#X connect 7 0 8 0;
#X connect 8 0 9 0;
#X connect 10 0 11 0;
#X connect 11 0 12 0;
#X connect 12 0 13 0;
#X connect 13 0 14 0;
#X connect 13 1 18 0;
#X connect 14 0 16 0;
#X connect 15 0 17 0;
#X connect 18 0 15 0;
