#N canvas 44 58 646 669 12;
#X obj 148 501 osc~;
#X obj 148 583 output~;
#X obj 148 352 * 22000;
#X obj 148 430 line~;
#X obj 148 323 / 127;
#X obj 148 530 *~;
#X obj 298 489 line~;
#X obj 298 460 pack 0 200;
#X obj 298 322 moses 30;
#X obj 298 351 / 30;
#X msg 348 351 1;
#X text 370 322 envelope generator;
#X obj 148 401 pack 0 50;
#X msg 77 354 50;
#X text 32 326 step;
#X text 77 326 gliss;
#X obj 148 195 loadbang;
#X obj 100 218 bng 15 250 50 0 empty empty empty 17 7 0 10 -262144
-1 -1;
#X msg 215 195 close;
#X msg 38 354 2;
#X obj 148 247 sense2;
#X connect 0 0 5 0;
#X connect 2 0 12 0;
#X connect 3 0 0 0;
#X connect 4 0 2 0;
#X connect 5 0 1 0;
#X connect 5 0 1 1;
#X connect 6 0 5 1;
#X connect 7 0 6 0;
#X connect 8 0 9 0;
#X connect 8 1 10 0;
#X connect 9 0 7 0;
#X connect 10 0 7 0;
#X connect 12 0 3 0;
#X connect 13 0 12 1;
#X connect 16 0 20 0;
#X connect 17 0 20 0;
#X connect 18 0 20 1;
#X connect 19 0 12 1;
#X connect 20 0 4 0;
#X connect 20 1 8 0;
